<?xml version="1.0" encoding="UTF-8" standalone="no"?>
<!-- Generator: Adobe Illustrator 16.0.0, SVG Export Plug-In . SVG Version: 6.00 Build 0)  -->

<svg
   xmlns:dc="http://purl.org/dc/elements/1.1/"
   xmlns:cc="http://creativecommons.org/ns#"
   xmlns:rdf="http://www.w3.org/1999/02/22-rdf-syntax-ns#"
   xmlns:svg="http://www.w3.org/2000/svg"
   xmlns="http://www.w3.org/2000/svg"
   xmlns:sodipodi="http://sodipodi.sourceforge.net/DTD/sodipodi-0.dtd"
   xmlns:inkscape="http://www.inkscape.org/namespaces/inkscape"
   version="1.1"
   id="Ebene_1"
   x="0px"
   y="0px"
   width="113.279"
   height="113.279"
   viewBox="0 0 113.279 113.279"
   enable-background="new 0 0 404.667 141.334"
   xml:space="preserve"
   inkscape:version="0.48.4 r9939"
   sodipodi:docname="PP-BE-LV-Logo-SS_draft-1.svg"
   inkscape:export-filename="/home/simon/politik/piraten/berlin-verwaltung/PP-BE-LV-Logo-SS-v1_nur-signe.png"
   inkscape:export-xdpi="794.49854"
   inkscape:export-ydpi="794.49854"><metadata
     id="metadata101"><rdf:RDF><cc:Work
         rdf:about=""><dc:format>image/svg+xml</dc:format><dc:type
           rdf:resource="http://purl.org/dc/dcmitype/StillImage" /><dc:title></dc:title></cc:Work></rdf:RDF></metadata><defs
     id="defs99"><marker
       inkscape:stockid="Arrow1Lend"
       orient="auto"
       refY="0.0"
       refX="0.0"
       id="Arrow1Lend"
       style="overflow:visible;"><path
         id="path5580"
         d="M 0.0,0.0 L 5.0,-5.0 L -12.5,0.0 L 5.0,5.0 L 0.0,0.0 z "
         style="fill-rule:evenodd;stroke:#000000;stroke-width:1.0pt;"
         transform="scale(0.8) rotate(180) translate(12.5,0)" /></marker></defs><sodipodi:namedview
     pagecolor="#ffffff"
     bordercolor="#666666"
     borderopacity="1"
     objecttolerance="10"
     gridtolerance="10"
     guidetolerance="10"
     inkscape:pageopacity="0"
     inkscape:pageshadow="2"
     inkscape:window-width="1551"
     inkscape:window-height="876"
     id="namedview97"
     showgrid="false"
     fit-margin-top="0"
     fit-margin-left="0"
     fit-margin-right="0"
     fit-margin-bottom="0"
     inkscape:zoom="8"
     inkscape:cx="63.819237"
     inkscape:cy="42.884722"
     inkscape:window-x="49"
     inkscape:window-y="24"
     inkscape:window-maximized="1"
     inkscape:current-layer="Ebene_1"
     showguides="true"
     inkscape:guide-bbox="true" /><path
     d="m 113.279,56.639999 c 0,31.28 -25.356,56.639001 -56.641,56.639001 C 25.359,113.279 0,87.919999 0,56.639999 0,25.358999 25.358,-1.1811915e-6 56.638,-1.1811915e-6 87.923,-1.1811915e-6 113.279,25.359999 113.279,56.639999 z"
     id="path3"
     inkscape:connector-curvature="0"
     style="fill:#ffffff" /><circle
     cx="88.771004"
     cy="68.042"
     r="53.651001"
     id="circle5"
     sodipodi:cx="88.771004"
     sodipodi:cy="68.042"
     sodipodi:rx="53.651001"
     sodipodi:ry="53.651001"
     style="fill:#f39200"
     transform="translate(-32.131,-11.402001)" /><g
     id="g7"
     transform="translate(-32.412738,-11.551156)"><path
       d="m 88.74,27.222 c -22.533,0 -40.79,18.316 -40.79,40.85 0,22.534 18.257,40.852 40.79,40.852 22.53,0 40.852,-18.318 40.852,-40.852 0,-22.531 -18.321,-40.85 -40.852,-40.85 l 0,0 z"
       id="path9"
       inkscape:connector-curvature="0"
       style="fill:#ffffff" /><path
       d="m 88.74,30.289 c -20.839,0 -37.721,16.94 -37.721,37.783 0,20.84 16.882,37.78 37.721,37.78 20.838,0 37.782,-16.939 37.782,-37.78 0,-20.839 -16.944,-37.783 -37.782,-37.783 l 0,0 z"
       id="path11"
       inkscape:connector-curvature="0"
       style="fill:#ffffff" /><path
       d="m 78.05,77.465 c 0.466,-0.252 0.966,-0.492 1.488,-0.719 6.222,-2.682 9.301,-7.395 9.301,-13.197 0,-5.754 -4.252,-10.768 -10.789,-12.521 v 26.437 l 0,0 z m 12.5,-30.623 c 13.841,0.43 21.888,6.727 21.888,15.963 0,8.445 -5.22,13.064 -22.4,16.113 -12.797,2.271 -16.183,5.359 -16.183,10.629 0,3.23 1.079,5.703 2.968,7.916 -2.875,-1.805 -5.186,-5.531 -5.186,-9.75 0,-2.592 0.766,-5.049 2.502,-7.129 V 50.4 c -0.427,-0.027 -0.858,-0.041 -1.3,-0.041 -0.191,0 -0.378,0.009 -0.561,0.02 -0.233,0.016 -0.306,-0.256 -0.061,-0.36 0.593,-0.249 1.235,-0.493 1.921,-0.724 v -6.344 c 0,-0.131 0.104,-0.236 0.234,-0.236 h 3.44 c 0.129,0 0.236,0.105 0.236,0.236 v 5.26 c 4.112,-0.943 8.811,-1.484 12.502,-1.369 l 0,0 z"
       id="path13"
       inkscape:connector-curvature="0" /><path
       d="m 88.742,33.911 c 18.88,0 34.157,15.282 34.157,34.161 0,18.879 -15.277,34.159 -34.157,34.159 -18.874,0 -34.1,-15.279 -34.1,-34.159 10e-4,-18.879 15.226,-34.161 34.1,-34.161 l 0,0 z M 88.74,30.289 c -20.839,0 -37.721,16.94 -37.721,37.783 0,20.84 16.882,37.78 37.721,37.78 20.838,0 37.782,-16.939 37.782,-37.78 0,-20.839 -16.944,-37.783 -37.782,-37.783 l 0,0 z"
       id="path15"
       inkscape:connector-curvature="0" /></g><path
     style="fill:none;stroke:#000000;stroke-width:1px;stroke-linecap:butt;stroke-linejoin:miter;stroke-opacity:1"
     d="M 40.427634,79.991095 C 52.559709,101.55629 67.171937,75.952243 67.171937,75.952243"
     id="path3801"
     inkscape:connector-curvature="0"
     sodipodi:nodetypes="cc" /><path
     inkscape:connector-curvature="0"
     id="path3803"
     d="M 40.475429,80.093998 C 50.995384,101.184 72.036644,77.260679 72.036644,77.260679"
     style="fill:none;stroke:#000000;stroke-width:1px;stroke-linecap:butt;stroke-linejoin:miter;stroke-opacity:1"
     sodipodi:nodetypes="cc" /><path
     style="fill:none;stroke:#000000;stroke-width:1px;stroke-linecap:butt;stroke-linejoin:miter;stroke-opacity:1"
     d="m 40.569369,80.218538 c 11.960306,20.690192 22.562765,-5.02416 22.562765,-5.02416"
     id="path3805"
     inkscape:connector-curvature="0"
     sodipodi:nodetypes="cc" /><g
     id="g5523"
     transform="matrix(0.92718385,0.37460659,-0.37460659,0.92718385,32.100348,-17.39994)"><g
       id="g5478"><rect
         style="fill:#000000;fill-opacity:1;stroke:#000000;stroke-width:0.16582319;stroke-miterlimit:4;stroke-dasharray:none"
         id="rect3807"
         width="1.768452"
         height="2.0817132"
         x="62.539684"
         y="71.107552" /><rect
         y="73.375008"
         x="62.48925"
         height="0.12498297"
         width="1.8693142"
         id="rect5292"
         style="fill:#000000;fill-opacity:1;stroke:#000000;stroke-width:0.04177386;stroke-miterlimit:4;stroke-dasharray:none" /><rect
         style="fill:#000000;fill-opacity:1;stroke:#000000;stroke-width:0.04039358;stroke-miterlimit:4;stroke-dasharray:none"
         id="rect5312"
         width="1.736334"
         height="0.12581"
         x="62.55574"
         y="73.640015" /><rect
         style="fill:#000000;fill-opacity:1;stroke:#000000;stroke-width:0.03943983;stroke-miterlimit:4;stroke-dasharray:none"
         id="rect5314"
         width="1.6478319"
         height="0.12638074"
         x="62.599991"
         y="73.905151" /><rect
         y="74.170174"
         x="62.659275"
         height="0.12717782"
         width="1.5292673"
         id="rect5316"
         style="fill:#000000;fill-opacity:1;stroke:#000000;stroke-width:0.03811408;stroke-miterlimit:4;stroke-dasharray:none" /><rect
         style="fill:#000000;fill-opacity:1;stroke:#000000;stroke-width:0.08914568;stroke-miterlimit:4;stroke-dasharray:none"
         id="rect5318"
         width="1.2468332"
         height="0.85332745"
         x="62.800488"
         y="73.313232" /></g><g
       transform="translate(0,0.20439799)"
       id="g5502"><rect
         y="69.242836"
         x="62.647213"
         height="1.5915859"
         width="1.5533855"
         id="rect5290"
         style="fill:#000000;fill-opacity:0;stroke:#000000;stroke-width:0.03;stroke-miterlimit:3;stroke-dasharray:none;stroke-dashoffset:0.06" /><g
         id="g5379"
         transform="translate(-0.07181553,-0.02336884)"><rect
           y="69.266205"
           x="62.887756"
           height="0.60285097"
           width="0.066758946"
           id="rect5320"
           style="fill:#000000;fill-opacity:1;stroke:#000000;stroke-width:0.01688644;stroke-miterlimit:4;stroke-opacity:1;stroke-dasharray:none" /><rect
           style="fill:#000000;fill-opacity:1;stroke:#000000;stroke-width:0.01688644;stroke-miterlimit:4;stroke-opacity:1;stroke-dasharray:none"
           id="rect5333"
           width="0.066758946"
           height="0.60285097"
           x="63.048141"
           y="69.266205" /><rect
           y="69.266205"
           x="63.20853"
           height="0.60285097"
           width="0.066758946"
           id="rect5335"
           style="fill:#000000;fill-opacity:1;stroke:#000000;stroke-width:0.01688644;stroke-miterlimit:4;stroke-opacity:1;stroke-dasharray:none" /><rect
           style="fill:#000000;fill-opacity:1;stroke:#000000;stroke-width:0.01688644;stroke-miterlimit:4;stroke-opacity:1;stroke-dasharray:none"
           id="rect5337"
           width="0.066758946"
           height="0.60285097"
           x="63.368916"
           y="69.266205" /><rect
           y="69.266205"
           x="63.850075"
           height="0.60285097"
           width="0.066758946"
           id="rect5339"
           style="fill:#000000;fill-opacity:1;stroke:#000000;stroke-width:0.01688644;stroke-miterlimit:4;stroke-opacity:1;stroke-dasharray:none" /><rect
           style="fill:#000000;fill-opacity:1;stroke:#000000;stroke-width:0.01688644;stroke-miterlimit:4;stroke-opacity:1;stroke-dasharray:none"
           id="rect5341"
           width="0.066758946"
           height="0.60285097"
           x="64.01046"
           y="69.266205" /><rect
           y="69.266205"
           x="63.689686"
           height="0.60285097"
           width="0.066758946"
           id="rect5339-1"
           style="fill:#000000;fill-opacity:1;stroke:#000000;stroke-width:0.01688644;stroke-miterlimit:4;stroke-opacity:1;stroke-dasharray:none" /><rect
           y="69.266205"
           x="63.529301"
           height="0.60285097"
           width="0.066758946"
           id="rect5339-1-7"
           style="fill:#000000;fill-opacity:1;stroke:#000000;stroke-width:0.01688644;stroke-miterlimit:4;stroke-opacity:1;stroke-dasharray:none" /></g><g
         id="g5468"><rect
           y="69.851524"
           x="62.821636"
           height="0.97994703"
           width="0.055944368"
           id="rect5434"
           style="fill:#000000;fill-opacity:0;stroke:#000000;stroke-width:0.01219722;stroke-miterlimit:3;stroke-opacity:1;stroke-dasharray:none;stroke-dashoffset:0.06" /><rect
           style="fill:#000000;fill-opacity:0;stroke:#000000;stroke-width:0.01219722;stroke-miterlimit:3;stroke-opacity:1;stroke-dasharray:none;stroke-dashoffset:0.06"
           id="rect5454"
           width="0.055944368"
           height="0.97994703"
           x="63.143066"
           y="69.851524" /><rect
           y="69.851524"
           x="63.30378"
           height="0.97994703"
           width="0.055944368"
           id="rect5456"
           style="fill:#000000;fill-opacity:0;stroke:#000000;stroke-width:0.01219722;stroke-miterlimit:3;stroke-opacity:1;stroke-dasharray:none;stroke-dashoffset:0.06" /><rect
           style="fill:#000000;fill-opacity:0;stroke:#000000;stroke-width:0.01219722;stroke-miterlimit:3;stroke-opacity:1;stroke-dasharray:none;stroke-dashoffset:0.06"
           id="rect5458"
           width="0.055944368"
           height="0.97994703"
           x="63.464493"
           y="69.851524" /><rect
           y="69.851524"
           x="63.625206"
           height="0.97994703"
           width="0.055944368"
           id="rect5460"
           style="fill:#000000;fill-opacity:0;stroke:#000000;stroke-width:0.01219722;stroke-miterlimit:3;stroke-opacity:1;stroke-dasharray:none;stroke-dashoffset:0.06" /><rect
           style="fill:#000000;fill-opacity:0;stroke:#000000;stroke-width:0.01219722;stroke-miterlimit:3;stroke-opacity:1;stroke-dasharray:none;stroke-dashoffset:0.06"
           id="rect5462"
           width="0.055944368"
           height="0.97994703"
           x="63.785923"
           y="69.851524" /><rect
           y="69.851524"
           x="63.946636"
           height="0.97994703"
           width="0.055944368"
           id="rect5464"
           style="fill:#000000;fill-opacity:0;stroke:#000000;stroke-width:0.01219722;stroke-miterlimit:3;stroke-opacity:1;stroke-dasharray:none;stroke-dashoffset:0.06" /><rect
           style="fill:#000000;fill-opacity:0;stroke:#000000;stroke-width:0.01219722;stroke-miterlimit:3;stroke-opacity:1;stroke-dasharray:none;stroke-dashoffset:0.06"
           id="rect5466"
           width="0.055944368"
           height="0.97994703"
           x="62.982349"
           y="69.851524" /></g></g></g><g
     id="g7033"
     transform="matrix(0.75307738,0.65793196,-0.65793196,0.75307738,67.386609,-26.934973)"><path
       inkscape:connector-curvature="0"
       id="path6967"
       d="m 71.75,69.236029 -1.609375,0.546875 0,2.835938 1.609375,0 z"
       style="fill:#000000;fill-opacity:1;stroke:#000000;stroke-width:0.31999999;stroke-linecap:round;stroke-linejoin:round;stroke-miterlimit:4;stroke-opacity:1;stroke-dasharray:none" /><g
       transform="translate(-0.01371021,0)"
       id="g6973"><path
         style="fill:none;stroke:#000000;stroke-width:0.50384718;stroke-linecap:round;stroke-linejoin:miter;stroke-miterlimit:4;stroke-opacity:1;stroke-dasharray:none;marker-start:none"
         d="m 73.95495,71.773287 1.683851,-0.0042"
         id="path6579-5"
         inkscape:connector-curvature="0" /><path
         inkscape:connector-curvature="0"
         id="path6969"
         d="m 74.046928,71.771705 1.570203,-10e-4"
         style="fill:none;stroke:#ffffff;stroke-width:0.242;stroke-linecap:round;stroke-linejoin:miter;stroke-miterlimit:4;stroke-opacity:1;stroke-dasharray:none;marker-start:none" /></g><g
       transform="translate(0.01363379,0)"
       id="g6977"><path
         style="fill:none;stroke:#000000;stroke-width:0.50400001;stroke-linecap:round;stroke-linejoin:miter;stroke-miterlimit:4;stroke-opacity:1;stroke-dasharray:none;marker-start:none"
         d="m 73.927606,70.081863 1.683851,-0.0042"
         id="path6579"
         inkscape:connector-curvature="0" /><path
         style="fill:none;stroke:#ffffff;stroke-width:0.242;stroke-linecap:round;stroke-linejoin:miter;stroke-miterlimit:4;stroke-opacity:1;stroke-dasharray:none;marker-start:none"
         d="m 74.046928,70.070229 1.570203,-10e-4"
         id="path6971"
         inkscape:connector-curvature="0" /></g><rect
       y="69.081482"
       x="71.774559"
       height="3.6880002"
       width="2.2564569"
       id="rect5563"
       style="fill:#000000;fill-opacity:1;stroke:#000000;stroke-width:0.00950108;stroke-miterlimit:3;stroke-opacity:1;stroke-dasharray:none;stroke-dashoffset:0.06" /><rect
       y="72.821045"
       x="70.951668"
       height="1.1774"
       width="2.2009099"
       id="rect6985"
       style="fill:#000000;fill-opacity:1;stroke:#000000;stroke-width:0.26085079;stroke-linecap:butt;stroke-linejoin:miter;stroke-miterlimit:4;stroke-opacity:1;stroke-dasharray:none;stroke-dashoffset:0.06" /><rect
       style="fill:#000000;fill-opacity:1;stroke:#000000;stroke-width:0.18662779;stroke-linecap:butt;stroke-linejoin:miter;stroke-miterlimit:4;stroke-opacity:1;stroke-dasharray:none;stroke-dashoffset:0.06"
       id="rect7013"
       width="1.0597931"
       height="1.251623"
       x="71.522224"
       y="73.844597" /><rect
       y="74.246986"
       x="70.847923"
       height="0.16634665"
       width="1.0936228"
       id="rect7015"
       style="fill:#000000;fill-opacity:1;stroke:#000000;stroke-width:0.0691146;stroke-linecap:butt;stroke-linejoin:miter;stroke-miterlimit:4;stroke-opacity:1;stroke-dasharray:none;stroke-dashoffset:0.06" /><rect
       style="fill:#000000;fill-opacity:1;stroke:#000000;stroke-width:0.07243121;stroke-linecap:butt;stroke-linejoin:miter;stroke-miterlimit:4;stroke-opacity:1;stroke-dasharray:none;stroke-dashoffset:0.06"
       id="rect7017"
       width="1.2212659"
       height="0.16360001"
       x="72.027061"
       y="74.088844" /><rect
       y="74.566193"
       x="70.848236"
       height="0.16599241"
       width="1.1095651"
       id="rect7019"
       style="fill:#000000;fill-opacity:1;stroke:#000000;stroke-width:0.06954237;stroke-linecap:butt;stroke-linejoin:miter;stroke-miterlimit:4;stroke-opacity:1;stroke-dasharray:none;stroke-dashoffset:0.06" /><rect
       style="fill:#000000;fill-opacity:1;stroke:#000000;stroke-width:0.071488;stroke-linecap:butt;stroke-linejoin:miter;stroke-miterlimit:4;stroke-opacity:1;stroke-dasharray:none;stroke-dashoffset:0.06"
       id="rect7021"
       width="1.1840129"
       height="0.16438113"
       x="72.070549"
       y="74.726517" /><rect
       y="74.407486"
       x="72.070549"
       height="0.16438113"
       width="1.1840129"
       id="rect7023"
       style="fill:#000000;fill-opacity:1;stroke:#000000;stroke-width:0.071488;stroke-linecap:butt;stroke-linejoin:miter;stroke-miterlimit:4;stroke-opacity:1;stroke-dasharray:none;stroke-dashoffset:0.06" /><rect
       y="75.045547"
       x="72.070549"
       height="0.16438113"
       width="1.1840129"
       id="rect7025"
       style="fill:#000000;fill-opacity:1;stroke:#000000;stroke-width:0.071488;stroke-linecap:butt;stroke-linejoin:miter;stroke-miterlimit:4;stroke-opacity:1;stroke-dasharray:none;stroke-dashoffset:0.06" /><rect
       style="fill:#000000;fill-opacity:1;stroke:#000000;stroke-width:0.06954237;stroke-linecap:butt;stroke-linejoin:miter;stroke-miterlimit:4;stroke-opacity:1;stroke-dasharray:none;stroke-dashoffset:0.06"
       id="rect7027"
       width="1.1095651"
       height="0.16599241"
       x="70.848236"
       y="74.885231" /><rect
       style="fill:#000000;fill-opacity:1;stroke:#000000;stroke-width:0.10041036;stroke-linecap:butt;stroke-linejoin:miter;stroke-miterlimit:4;stroke-opacity:1;stroke-dasharray:none;stroke-dashoffset:0.06"
       id="rect7031"
       width="2.3690832"
       height="0.16207597"
       x="70.87149"
       y="75.206215" /></g><g
     id="g3870"
     transform="matrix(0.61832154,0.36276706,-0.36276706,0.61832154,51.963391,4.0888367)"><g
       transform="translate(0.8125,-1.21875)"
       id="g3830"><rect
         style="fill:#000000;fill-opacity:0;stroke:#000000;stroke-width:0.052;stroke-linecap:butt;stroke-linejoin:miter;stroke-miterlimit:4;stroke-opacity:1;stroke-dasharray:none;stroke-dashoffset:0.06"
         id="rect7053"
         width="1.375"
         height="6.125"
         x="67.53125"
         y="69.028999" /><rect
         y="69.271828"
         x="67.510811"
         height="0.17644115"
         width="1.415874"
         id="rect7070"
         style="fill:#000000;fill-opacity:1;stroke:#000000;stroke-width:0.00895594;stroke-linecap:butt;stroke-linejoin:miter;stroke-miterlimit:4;stroke-opacity:1;stroke-dasharray:none;stroke-dashoffset:0.06" /><rect
         style="fill:#000000;fill-opacity:1;stroke:#000000;stroke-width:0.00627063;stroke-linecap:butt;stroke-linejoin:miter;stroke-miterlimit:4;stroke-opacity:1;stroke-dasharray:none;stroke-dashoffset:0.06"
         id="rect7072"
         width="1.4185764"
         height="0.086332053"
         x="67.50946"
         y="70.134392" /><path
         style="fill:none;stroke:#000000;stroke-width:0.05;stroke-linecap:butt;stroke-linejoin:miter;stroke-miterlimit:0.40000001;stroke-opacity:1;stroke-dasharray:none"
         d="m 67.528914,69.012831 c 0,0 0.0027,-0.158234 0.0016,-0.210219 -7.01e-4,-0.03279 0.02884,-0.05953 0.04928,-0.08519 0.04447,-0.05581 0.120502,-0.08437 0.156696,-0.145871 0.02889,-0.04909 0.04229,-0.108914 0.04106,-0.165855 -0.0016,-0.07364 -0.03368,-0.144138 -0.06234,-0.211989 -0.04753,-0.112526 -0.15101,-0.200558 -0.179941,-0.319234 -0.01329,-0.05453 -0.01274,-0.115339 0.0059,-0.168281 0.09301,-0.264151 0.503095,-0.672852 0.503095,-0.672852 l 0.347015,0 c 0,0 0.410085,0.408701 0.503095,0.672852 0.01864,0.05294 0.01919,0.113751 0.0059,0.168281 -0.02893,0.118676 -0.132411,0.206708 -0.179941,0.319234 -0.02866,0.06785 -0.06074,0.138349 -0.06234,0.211989 -0.0012,0.05694 0.01217,0.116765 0.04106,0.165855 0.03619,0.0615 0.112226,0.09006 0.156696,0.145871 0.02044,0.02566 0.04998,0.0524 0.04928,0.08519 -0.0011,0.05199 0.0016,0.210219 0.0016,0.210219"
         inkscape:connector-curvature="0"
         sodipodi:nodetypes="csssssssccsssssssc"
         id="path68" /></g><g
       id="g3866"><rect
         y="72.014137"
         x="68.160912"
         height="2.826602"
         width="1.7406749"
         id="rect3050"
         style="fill:#000000;fill-opacity:1;stroke:#000000;stroke-width:0.0397457;stroke-linecap:butt;stroke-linejoin:miter;stroke-miterlimit:4;stroke-opacity:1;stroke-dasharray:none;stroke-dashoffset:0.06" /><path
         style="fill:#000000;fill-opacity:1;stroke:#000000;stroke-width:0.05;stroke-linecap:butt;stroke-linejoin:miter;stroke-miterlimit:4;stroke-opacity:1;stroke-dasharray:none"
         d="m 69.898437,74.849312 -0.195811,0.859258 -1.347992,-6.73e-4 -0.190571,-0.866384"
         id="path3826"
         inkscape:connector-curvature="0"
         sodipodi:nodetypes="cccc" /></g></g></svg>