<?xml version="1.0" encoding="UTF-8" standalone="no"?>
<!-- Generator: Adobe Illustrator 16.0.0, SVG Export Plug-In . SVG Version: 6.00 Build 0)  -->

<svg
   xmlns:dc="http://purl.org/dc/elements/1.1/"
   xmlns:cc="http://creativecommons.org/ns#"
   xmlns:rdf="http://www.w3.org/1999/02/22-rdf-syntax-ns#"
   xmlns:svg="http://www.w3.org/2000/svg"
   xmlns="http://www.w3.org/2000/svg"
   xmlns:sodipodi="http://sodipodi.sourceforge.net/DTD/sodipodi-0.dtd"
   xmlns:inkscape="http://www.inkscape.org/namespaces/inkscape"
   version="1.1"
   id="Ebene_1"
   x="0px"
   y="0px"
   width="200"
   height="200"
   viewBox="0 0 113.279 113.279"
   enable-background="new 0 0 404.667 141.334"
   xml:space="preserve"
   inkscape:version="0.48.4 r9939"
   sodipodi:docname="PP-BE-LV-Logo.svg"
   inkscape:export-xdpi="794.49854"
   inkscape:export-ydpi="794.49854"><metadata
     id="metadata101"><rdf:RDF><cc:Work
         rdf:about=""><dc:format>image/svg+xml</dc:format><dc:type
           rdf:resource="http://purl.org/dc/dcmitype/StillImage" /><dc:title /></cc:Work></rdf:RDF></metadata><defs
     id="defs99"><marker
       inkscape:stockid="Arrow1Lend"
       orient="auto"
       refY="0"
       refX="0"
       id="Arrow1Lend"
       style="overflow:visible"><path
         id="path5580"
         d="M 0,0 5,-5 -12.5,0 5,5 0,0 z"
         style="fill-rule:evenodd;stroke:#000000;stroke-width:1pt"
         transform="matrix(-0.8,0,0,-0.8,-10,0)"
         inkscape:connector-curvature="0" /></marker></defs><sodipodi:namedview
     pagecolor="#ffffff"
     bordercolor="#666666"
     borderopacity="1"
     objecttolerance="10"
     gridtolerance="10"
     guidetolerance="10"
     inkscape:pageopacity="0"
     inkscape:pageshadow="2"
     inkscape:window-width="1366"
     inkscape:window-height="709"
     id="namedview97"
     showgrid="false"
     fit-margin-top="0"
     fit-margin-left="0"
     fit-margin-right="0"
     fit-margin-bottom="0"
     inkscape:zoom="7.2124892"
     inkscape:cx="101.71398"
     inkscape:cy="88.156731"
     inkscape:window-x="0"
     inkscape:window-y="27"
     inkscape:window-maximized="1"
     inkscape:current-layer="g7"
     showguides="true"
     inkscape:guide-bbox="true"
     inkscape:snap-page="true" /><path
     d="m 113.279,56.639999 c 0,31.28 -25.356,56.639001 -56.641,56.639001 C 25.359,113.279 0,87.919999 0,56.639999 0,25.358999 25.358,-1.1811915e-6 56.638,-1.1811915e-6 87.923,-1.1811915e-6 113.279,25.359999 113.279,56.639999 z"
     id="path3"
     inkscape:connector-curvature="0"
     style="fill:#ffffff" /><circle
     cx="88.771004"
     cy="68.042"
     r="53.651001"
     id="circle5"
     sodipodi:cx="88.771004"
     sodipodi:cy="68.042"
     sodipodi:rx="53.651001"
     sodipodi:ry="53.651001"
     style="fill:#f39200"
     transform="translate(-32.131,-11.402001)" /><g
     id="g7"
     transform="translate(-32.412738,-11.551156)"><path
       d="m 88.74,27.222 c -22.533,0 -40.79,18.316 -40.79,40.85 0,22.534 18.257,40.852 40.79,40.852 22.53,0 40.852,-18.318 40.852,-40.852 0,-22.531 -18.321,-40.85 -40.852,-40.85 l 0,0 z"
       id="path9"
       inkscape:connector-curvature="0"
       style="fill:#ffffff" /><path
       d="m 88.74,30.289 c -20.839,0 -37.721,16.94 -37.721,37.783 0,20.84 16.882,37.78 37.721,37.78 20.838,0 37.782,-16.939 37.782,-37.78 0,-20.839 -16.944,-37.783 -37.782,-37.783 l 0,0 z"
       id="path11"
       inkscape:connector-curvature="0"
       style="fill:#ffffff" /><path
       d="m 66.0625,54.28125 c -0.14509,0 -0.28125,0.103795 -0.28125,0.25 0,11.319925 0.153426,40.848781 0.0625,40.9375 -2.268152,2.795193 -3.483564,5.99404 -3.09375,11.84375 0.966838,8.41491 5.042472,28.0428 13.0625,36.59375 6.794075,6.98238 18.246338,8.63062 26.8076,7.8223 8.56126,-0.80832 14.27613,-4.02732 21.1299,-8.72855 6.85377,-4.70123 12.08269,-10.36327 14.0625,-15.59375 l -2.53125,-0.9375 c -1.62806,4.30117 -6.53041,9.80068 -13.0625,14.28125 -6.53209,4.48057 -11.93197,7.47814 -19.8799,8.22855 -7.947929,0.75041 -18.405084,-0.65465 -24.58885,-7.0098 -3.145689,-3.23288 -5.99717,-8.66497 -8.129289,-14.54289 3.876554,7.10041 10.841791,10.41757 17.785539,11.75122 12.537099,2.40794 26.83898,-3.20787 35.75,-21.42708 l -2.5,-1.21875 c -8.53588,17.45222 -21.595848,22.16315 -32.75,20.02083 -7.788089,-1.49582 -14.844814,-5.50376 -18.84375,-14.98958 4.819784,6.7704 16.579394,11.41986 23.223039,11.53738 10.417751,0.18428 18.483271,-9.88593 19.082641,-18.26583 l -2.31646,-0.6602 c -0.63222,6.79916 -6.00148,18.22057 -18.190739,17.1119 -18.555977,-3.49611 -23.248398,-13.8728 -25.204731,-25.442 -0.831536,-8.058276 4.85476,-8.808837 17.90625,-11.125 19.17388,-3.402862 24.96875,-8.606137 24.96875,-18.03125 0,-10.307916 -8.958886,-17.332595 -24.40625,-17.8125 -4.119371,-0.128347 -9.379518,0.478806 -13.96875,1.53125 l 0,-5.875 c 0,-0.146211 -0.106019,-0.25 -0.25,-0.25 z m 4.09375,9.28125 c 7.295674,1.956451 12.0625,7.578199 12.0625,14 0,6.47537 -3.430883,11.756732 -10.375,14.75 -0.582581,0.253344 -1.167416,0.500005 -1.6875,0.78125 z"
       transform="matrix(0.566395,0,0,0.566395,32.412738,11.551156)"
       id="path13"
       inkscape:connector-curvature="0"
       sodipodi:nodetypes="sscccssccssscsccscsccccssccssscsccc" /><path
       d="m 88.742,33.911 c 18.88,0 34.157,15.282 34.157,34.161 0,18.879 -15.277,34.159 -34.157,34.159 -18.874,0 -34.1,-15.279 -34.1,-34.159 10e-4,-18.879 15.226,-34.161 34.1,-34.161 l 0,0 z M 88.74,30.289 c -20.839,0 -37.721,16.94 -37.721,37.783 0,20.84 16.882,37.78 37.721,37.78 20.838,0 37.782,-16.939 37.782,-37.78 0,-20.839 -16.944,-37.783 -37.782,-37.783 l 0,0 z"
       id="path15"
       inkscape:connector-curvature="0" /></g><g
     id="g5523"
     transform="matrix(2.1566635,0.0897615,-0.0897615,2.1566635,-67.549726,-100.85801)"
     inkscape:transform-center-x="-2.4297052"><g
       id="g5478"><rect
         style="fill:#000000;fill-opacity:1;stroke:#000000;stroke-width:0.16582319;stroke-miterlimit:4;stroke-dasharray:none"
         id="rect3807"
         width="1.768452"
         height="2.0817132"
         x="62.539684"
         y="71.107552" /><rect
         y="73.375008"
         x="62.48925"
         height="0.12498297"
         width="1.8693142"
         id="rect5292"
         style="fill:#000000;fill-opacity:1;stroke:#000000;stroke-width:0.04177386;stroke-miterlimit:4;stroke-dasharray:none" /><rect
         style="fill:#000000;fill-opacity:1;stroke:#000000;stroke-width:0.04039358;stroke-miterlimit:4;stroke-dasharray:none"
         id="rect5312"
         width="1.736334"
         height="0.12581"
         x="62.55574"
         y="73.640015" /><rect
         style="fill:#000000;fill-opacity:1;stroke:#000000;stroke-width:0.03943983;stroke-miterlimit:4;stroke-dasharray:none"
         id="rect5314"
         width="1.6478319"
         height="0.12638074"
         x="62.599991"
         y="73.905151" /><rect
         y="74.170174"
         x="62.659275"
         height="0.12717782"
         width="1.5292673"
         id="rect5316"
         style="fill:#000000;fill-opacity:1;stroke:#000000;stroke-width:0.03811408;stroke-miterlimit:4;stroke-dasharray:none" /><rect
         style="fill:#000000;fill-opacity:1;stroke:#000000;stroke-width:0.08914568;stroke-miterlimit:4;stroke-dasharray:none"
         id="rect5318"
         width="1.2468332"
         height="0.85332745"
         x="62.800488"
         y="73.313232" /></g><g
       transform="translate(0,0.20439799)"
       id="g5502"><rect
         y="69.242836"
         x="62.647213"
         height="1.5915859"
         width="1.5533855"
         id="rect5290"
         style="fill:#000000;fill-opacity:0;stroke:#000000;stroke-width:0.03;stroke-miterlimit:3;stroke-dasharray:none;stroke-dashoffset:0.06" /><g
         id="g5379"
         transform="translate(-0.07181553,-0.02336884)"><rect
           y="69.266205"
           x="62.887756"
           height="0.60285097"
           width="0.066758946"
           id="rect5320"
           style="fill:#000000;fill-opacity:1;stroke:#000000;stroke-width:0.01688644;stroke-miterlimit:4;stroke-opacity:1;stroke-dasharray:none" /><rect
           style="fill:#000000;fill-opacity:1;stroke:#000000;stroke-width:0.01688644;stroke-miterlimit:4;stroke-opacity:1;stroke-dasharray:none"
           id="rect5333"
           width="0.066758946"
           height="0.60285097"
           x="63.048141"
           y="69.266205" /><rect
           y="69.266205"
           x="63.20853"
           height="0.60285097"
           width="0.066758946"
           id="rect5335"
           style="fill:#000000;fill-opacity:1;stroke:#000000;stroke-width:0.01688644;stroke-miterlimit:4;stroke-opacity:1;stroke-dasharray:none" /><rect
           style="fill:#000000;fill-opacity:1;stroke:#000000;stroke-width:0.01688644;stroke-miterlimit:4;stroke-opacity:1;stroke-dasharray:none"
           id="rect5337"
           width="0.066758946"
           height="0.60285097"
           x="63.368916"
           y="69.266205" /><rect
           y="69.266205"
           x="63.850075"
           height="0.60285097"
           width="0.066758946"
           id="rect5339"
           style="fill:#000000;fill-opacity:1;stroke:#000000;stroke-width:0.01688644;stroke-miterlimit:4;stroke-opacity:1;stroke-dasharray:none" /><rect
           style="fill:#000000;fill-opacity:1;stroke:#000000;stroke-width:0.01688644;stroke-miterlimit:4;stroke-opacity:1;stroke-dasharray:none"
           id="rect5341"
           width="0.066758946"
           height="0.60285097"
           x="64.01046"
           y="69.266205" /><rect
           y="69.266205"
           x="63.689686"
           height="0.60285097"
           width="0.066758946"
           id="rect5339-1"
           style="fill:#000000;fill-opacity:1;stroke:#000000;stroke-width:0.01688644;stroke-miterlimit:4;stroke-opacity:1;stroke-dasharray:none" /><rect
           y="69.266205"
           x="63.529301"
           height="0.60285097"
           width="0.066758946"
           id="rect5339-1-7"
           style="fill:#000000;fill-opacity:1;stroke:#000000;stroke-width:0.01688644;stroke-miterlimit:4;stroke-opacity:1;stroke-dasharray:none" /></g><g
         id="g5468"><rect
           y="69.851524"
           x="62.821636"
           height="0.97994703"
           width="0.055944368"
           id="rect5434"
           style="fill:#000000;fill-opacity:0;stroke:#000000;stroke-width:0.01219722;stroke-miterlimit:3;stroke-opacity:1;stroke-dasharray:none;stroke-dashoffset:0.06" /><rect
           style="fill:#000000;fill-opacity:0;stroke:#000000;stroke-width:0.01219722;stroke-miterlimit:3;stroke-opacity:1;stroke-dasharray:none;stroke-dashoffset:0.06"
           id="rect5454"
           width="0.055944368"
           height="0.97994703"
           x="63.143066"
           y="69.851524" /><rect
           y="69.851524"
           x="63.30378"
           height="0.97994703"
           width="0.055944368"
           id="rect5456"
           style="fill:#000000;fill-opacity:0;stroke:#000000;stroke-width:0.01219722;stroke-miterlimit:3;stroke-opacity:1;stroke-dasharray:none;stroke-dashoffset:0.06" /><rect
           style="fill:#000000;fill-opacity:0;stroke:#000000;stroke-width:0.01219722;stroke-miterlimit:3;stroke-opacity:1;stroke-dasharray:none;stroke-dashoffset:0.06"
           id="rect5458"
           width="0.055944368"
           height="0.97994703"
           x="63.464493"
           y="69.851524" /><rect
           y="69.851524"
           x="63.625206"
           height="0.97994703"
           width="0.055944368"
           id="rect5460"
           style="fill:#000000;fill-opacity:0;stroke:#000000;stroke-width:0.01219722;stroke-miterlimit:3;stroke-opacity:1;stroke-dasharray:none;stroke-dashoffset:0.06" /><rect
           style="fill:#000000;fill-opacity:0;stroke:#000000;stroke-width:0.01219722;stroke-miterlimit:3;stroke-opacity:1;stroke-dasharray:none;stroke-dashoffset:0.06"
           id="rect5462"
           width="0.055944368"
           height="0.97994703"
           x="63.785923"
           y="69.851524" /><rect
           y="69.851524"
           x="63.946636"
           height="0.97994703"
           width="0.055944368"
           id="rect5464"
           style="fill:#000000;fill-opacity:0;stroke:#000000;stroke-width:0.01219722;stroke-miterlimit:3;stroke-opacity:1;stroke-dasharray:none;stroke-dashoffset:0.06" /><rect
           style="fill:#000000;fill-opacity:0;stroke:#000000;stroke-width:0.01219722;stroke-miterlimit:3;stroke-opacity:1;stroke-dasharray:none;stroke-dashoffset:0.06"
           id="rect5466"
           width="0.055944368"
           height="0.97994703"
           x="62.982349"
           y="69.851524" /></g></g></g><g
     id="g7033"
     transform="matrix(1.341386,0.77900409,-0.77900409,1.341386,38.672182,-84.21759)"><path
       inkscape:connector-curvature="0"
       id="path6967"
       d="m 71.75,69.236029 -1.609375,0.546875 0,2.835938 1.609375,0 z"
       style="fill:#000000;fill-opacity:1;stroke:#000000;stroke-width:0.31999999;stroke-linecap:round;stroke-linejoin:round;stroke-miterlimit:4;stroke-opacity:1;stroke-dasharray:none" /><g
       transform="translate(-0.01371021,0)"
       id="g6973"><path
         style="fill:none;stroke:#000000;stroke-width:0.50384718;stroke-linecap:round;stroke-linejoin:miter;stroke-miterlimit:4;stroke-opacity:1;stroke-dasharray:none;marker-start:none"
         d="m 73.95495,71.773287 1.683851,-0.0042"
         id="path6579-5"
         inkscape:connector-curvature="0" /><path
         inkscape:connector-curvature="0"
         id="path6969"
         d="m 74.046928,71.771705 1.570203,-10e-4"
         style="fill:none;stroke:#ffffff;stroke-width:0.242;stroke-linecap:round;stroke-linejoin:miter;stroke-miterlimit:4;stroke-opacity:1;stroke-dasharray:none;marker-start:none" /></g><g
       transform="translate(0.01363379,0)"
       id="g6977"><path
         style="fill:none;stroke:#000000;stroke-width:0.50400001;stroke-linecap:round;stroke-linejoin:miter;stroke-miterlimit:4;stroke-opacity:1;stroke-dasharray:none;marker-start:none"
         d="m 73.927606,70.081863 1.683851,-0.0042"
         id="path6579"
         inkscape:connector-curvature="0" /><path
         style="fill:none;stroke:#ffffff;stroke-width:0.242;stroke-linecap:round;stroke-linejoin:miter;stroke-miterlimit:4;stroke-opacity:1;stroke-dasharray:none;marker-start:none"
         d="m 74.046928,70.070229 1.570203,-10e-4"
         id="path6971"
         inkscape:connector-curvature="0" /></g><rect
       y="69.081482"
       x="71.774559"
       height="3.6880002"
       width="2.2564569"
       id="rect5563"
       style="fill:#000000;fill-opacity:1;stroke:#000000;stroke-width:0.00950108;stroke-miterlimit:3;stroke-opacity:1;stroke-dasharray:none;stroke-dashoffset:0.06" /><rect
       y="72.821045"
       x="70.951668"
       height="1.1774"
       width="2.2009099"
       id="rect6985"
       style="fill:#000000;fill-opacity:1;stroke:#000000;stroke-width:0.26085079;stroke-linecap:butt;stroke-linejoin:miter;stroke-miterlimit:4;stroke-opacity:1;stroke-dasharray:none;stroke-dashoffset:0.06" /><rect
       style="fill:#000000;fill-opacity:1;stroke:#000000;stroke-width:0.18662779;stroke-linecap:butt;stroke-linejoin:miter;stroke-miterlimit:4;stroke-opacity:1;stroke-dasharray:none;stroke-dashoffset:0.06"
       id="rect7013"
       width="1.0597931"
       height="1.251623"
       x="71.522224"
       y="73.844597" /><rect
       y="74.246986"
       x="70.847923"
       height="0.16634665"
       width="1.0936228"
       id="rect7015"
       style="fill:#000000;fill-opacity:1;stroke:#000000;stroke-width:0.0691146;stroke-linecap:butt;stroke-linejoin:miter;stroke-miterlimit:4;stroke-opacity:1;stroke-dasharray:none;stroke-dashoffset:0.06" /><rect
       style="fill:#000000;fill-opacity:1;stroke:#000000;stroke-width:0.07243121;stroke-linecap:butt;stroke-linejoin:miter;stroke-miterlimit:4;stroke-opacity:1;stroke-dasharray:none;stroke-dashoffset:0.06"
       id="rect7017"
       width="1.2212659"
       height="0.16360001"
       x="72.027061"
       y="74.088844" /><rect
       y="74.566193"
       x="70.848236"
       height="0.16599241"
       width="1.1095651"
       id="rect7019"
       style="fill:#000000;fill-opacity:1;stroke:#000000;stroke-width:0.06954237;stroke-linecap:butt;stroke-linejoin:miter;stroke-miterlimit:4;stroke-opacity:1;stroke-dasharray:none;stroke-dashoffset:0.06" /><rect
       style="fill:#000000;fill-opacity:1;stroke:#000000;stroke-width:0.071488;stroke-linecap:butt;stroke-linejoin:miter;stroke-miterlimit:4;stroke-opacity:1;stroke-dasharray:none;stroke-dashoffset:0.06"
       id="rect7021"
       width="1.1840129"
       height="0.16438113"
       x="72.070549"
       y="74.726517" /><rect
       y="74.407486"
       x="72.070549"
       height="0.16438113"
       width="1.1840129"
       id="rect7023"
       style="fill:#000000;fill-opacity:1;stroke:#000000;stroke-width:0.071488;stroke-linecap:butt;stroke-linejoin:miter;stroke-miterlimit:4;stroke-opacity:1;stroke-dasharray:none;stroke-dashoffset:0.06" /><rect
       y="75.045547"
       x="72.070549"
       height="0.16438113"
       width="1.1840129"
       id="rect7025"
       style="fill:#000000;fill-opacity:1;stroke:#000000;stroke-width:0.071488;stroke-linecap:butt;stroke-linejoin:miter;stroke-miterlimit:4;stroke-opacity:1;stroke-dasharray:none;stroke-dashoffset:0.06" /><rect
       style="fill:#000000;fill-opacity:1;stroke:#000000;stroke-width:0.06954237;stroke-linecap:butt;stroke-linejoin:miter;stroke-miterlimit:4;stroke-opacity:1;stroke-dasharray:none;stroke-dashoffset:0.06"
       id="rect7027"
       width="1.1095651"
       height="0.16599241"
       x="70.848236"
       y="74.885231" /><rect
       style="fill:#000000;fill-opacity:1;stroke:#000000;stroke-width:0.10041036;stroke-linecap:butt;stroke-linejoin:miter;stroke-miterlimit:4;stroke-opacity:1;stroke-dasharray:none;stroke-dashoffset:0.06"
       id="rect7031"
       width="2.3690832"
       height="0.16207597"
       x="70.87149"
       y="75.206215" /></g><g
     id="g3870"
     transform="matrix(0.99942547,0.48757343,-0.48757343,0.99942547,36.963337,-42.971004)"><g
       transform="translate(0.8125,-1.21875)"
       id="g3830"><rect
         style="fill:#000000;fill-opacity:0;stroke:#000000;stroke-width:0.052;stroke-linecap:butt;stroke-linejoin:miter;stroke-miterlimit:4;stroke-opacity:1;stroke-dasharray:none;stroke-dashoffset:0.06"
         id="rect7053"
         width="1.375"
         height="6.125"
         x="67.53125"
         y="69.028999" /><rect
         y="69.271828"
         x="67.510811"
         height="0.17644115"
         width="1.415874"
         id="rect7070"
         style="fill:#000000;fill-opacity:1;stroke:#000000;stroke-width:0.00895594;stroke-linecap:butt;stroke-linejoin:miter;stroke-miterlimit:4;stroke-opacity:1;stroke-dasharray:none;stroke-dashoffset:0.06" /><rect
         style="fill:#000000;fill-opacity:1;stroke:#000000;stroke-width:0.00627063;stroke-linecap:butt;stroke-linejoin:miter;stroke-miterlimit:4;stroke-opacity:1;stroke-dasharray:none;stroke-dashoffset:0.06"
         id="rect7072"
         width="1.4185764"
         height="0.086332053"
         x="67.50946"
         y="70.134392" /><path
         style="fill:none;stroke:#000000;stroke-width:0.05;stroke-linecap:butt;stroke-linejoin:miter;stroke-miterlimit:0.40000001;stroke-opacity:1;stroke-dasharray:none"
         d="m 67.528914,69.012831 c 0,0 0.0027,-0.158234 0.0016,-0.210219 -7.01e-4,-0.03279 0.02884,-0.05953 0.04928,-0.08519 0.04447,-0.05581 0.120502,-0.08437 0.156696,-0.145871 0.02889,-0.04909 0.04229,-0.108914 0.04106,-0.165855 -0.0016,-0.07364 -0.03368,-0.144138 -0.06234,-0.211989 -0.04753,-0.112526 -0.15101,-0.200558 -0.179941,-0.319234 -0.01329,-0.05453 -0.01274,-0.115339 0.0059,-0.168281 0.09301,-0.264151 0.503095,-0.672852 0.503095,-0.672852 l 0.347015,0 c 0,0 0.410085,0.408701 0.503095,0.672852 0.01864,0.05294 0.01919,0.113751 0.0059,0.168281 -0.02893,0.118676 -0.132411,0.206708 -0.179941,0.319234 -0.02866,0.06785 -0.06074,0.138349 -0.06234,0.211989 -0.0012,0.05694 0.01217,0.116765 0.04106,0.165855 0.03619,0.0615 0.112226,0.09006 0.156696,0.145871 0.02044,0.02566 0.04998,0.0524 0.04928,0.08519 -0.0011,0.05199 0.0016,0.210219 0.0016,0.210219"
         inkscape:connector-curvature="0"
         sodipodi:nodetypes="csssssssccsssssssc"
         id="path68" /></g><g
       id="g3866"><rect
         y="72.014137"
         x="68.160912"
         height="2.826602"
         width="1.7406749"
         id="rect3050"
         style="fill:#000000;fill-opacity:1;stroke:#000000;stroke-width:0.0397457;stroke-linecap:butt;stroke-linejoin:miter;stroke-miterlimit:4;stroke-opacity:1;stroke-dasharray:none;stroke-dashoffset:0.06" /><path
         style="fill:#000000;fill-opacity:1;stroke:#000000;stroke-width:0.05;stroke-linecap:butt;stroke-linejoin:miter;stroke-miterlimit:4;stroke-opacity:1;stroke-dasharray:none"
         d="m 69.898437,74.849312 -0.195811,0.859258 -1.347992,-6.73e-4 -0.190571,-0.866384"
         id="path3826"
         inkscape:connector-curvature="0"
         sodipodi:nodetypes="cccc" /></g></g></svg>